<svg width="38" height="38" viewBox="0 0 38 38" fill="none" xmlns="http://www.w3.org/2000/svg">
<g clip-path="url(#clip0_2002_4310)">
<path d="M33.5469 2.96875H31.7656V0H28.7969V2.96875H9.20312V0H6.23438V2.96875H4.45312C1.99767 2.96875 0 4.96642 0 7.42188V33.5469C0 36.0023 1.99767 38 4.45312 38H33.5469C36.0023 38 38 36.0023 38 33.5469V7.42188C38 4.96642 36.0023 2.96875 33.5469 2.96875ZM35.0312 33.5469C35.0312 34.3654 34.3654 35.0312 33.5469 35.0312H4.45312C3.63464 35.0312 2.96875 34.3654 2.96875 33.5469V13.9531H35.0312V33.5469ZM35.0312 10.9844H2.96875V7.42188C2.96875 6.60339 3.63464 5.9375 4.45312 5.9375H6.23438V8.90625H9.20312V5.9375H28.7969V8.90625H31.7656V5.9375H33.5469C34.3654 5.9375 35.0312 6.60339 35.0312 7.42188V10.9844Z" fill="#A31711"/>
<path d="M8.60938 17.0703H5.64062V20.0391H8.60938V17.0703Z" fill="#A31711"/>
<path d="M14.5469 17.0703H11.5781V20.0391H14.5469V17.0703Z" fill="#A31711"/>
<path d="M20.4844 17.0703H17.5156V20.0391H20.4844V17.0703Z" fill="#A31711"/>
<path d="M26.4219 17.0703H23.4531V20.0391H26.4219V17.0703Z" fill="#A31711"/>
<path d="M32.3594 17.0703H29.3906V20.0391H32.3594V17.0703Z" fill="#A31711"/>
<path d="M8.60938 23.0078H5.64062V25.9766H8.60938V23.0078Z" fill="#A31711"/>
<path d="M14.5469 23.0078H11.5781V25.9766H14.5469V23.0078Z" fill="#A31711"/>
<path d="M20.4844 23.0078H17.5156V25.9766H20.4844V23.0078Z" fill="#A31711"/>
<path d="M26.4219 23.0078H23.4531V25.9766H26.4219V23.0078Z" fill="#A31711"/>
<path d="M8.60938 28.9453H5.64062V31.9141H8.60938V28.9453Z" fill="#A31711"/>
<path d="M14.5469 28.9453H11.5781V31.9141H14.5469V28.9453Z" fill="#A31711"/>
<path d="M20.4844 28.9453H17.5156V31.9141H20.4844V28.9453Z" fill="#A31711"/>
<path d="M26.4219 28.9453H23.4531V31.9141H26.4219V28.9453Z" fill="#A31711"/>
<path d="M32.3594 23.0078H29.3906V25.9766H32.3594V23.0078Z" fill="#A31711"/>
</g>
<defs>
<clipPath id="clip0_2002_4310">
<rect width="38" height="38" fill="white"/>
</clipPath>
</defs>
</svg>