<svg width="38" height="38" viewBox="0 0 38 38" fill="none" xmlns="http://www.w3.org/2000/svg">
<g clip-path="url(#clip0_2002_4362)">
<path fill-rule="evenodd" clip-rule="evenodd" d="M18.5839 4.80993C18.4855 4.44253 18.5371 4.05108 18.7273 3.72169C18.9175 3.3923 19.2307 3.15197 19.5981 3.05354C19.9655 2.95512 20.357 3.00669 20.6864 3.19688C21.0158 3.38708 21.2561 3.70034 21.3545 4.06774L21.5597 4.82967C20.6145 4.98845 19.6867 5.23766 18.7891 5.57387L18.5839 4.80993ZM35.6394 10.0869L36.196 9.53024C36.465 9.26156 36.6162 8.89703 36.6164 8.51685C36.6166 8.13668 36.4658 7.772 36.1971 7.50303C35.9284 7.23407 35.5639 7.08286 35.1837 7.08266C34.8035 7.08247 34.4388 7.23331 34.1699 7.50199L33.6132 8.05864C34.3522 8.66817 35.0309 9.34738 35.6398 10.0869H35.6394ZM26.5332 4.83168C27.0026 4.91028 27.472 5.01292 27.9348 5.13738C28.3999 5.26178 28.8562 5.40732 29.3037 5.57401L29.6781 4.17737L31.4586 4.65481L32.1223 2.18333L25.7865 0.487061L25.125 2.95632L26.9078 3.43444L26.5332 4.83168ZM27.6575 6.17875C25.4419 5.58373 23.1136 5.54482 20.8793 6.06545C18.645 6.58609 16.5738 7.65018 14.8494 9.16331H7.6829C7.61156 9.16247 7.54075 9.1758 7.4746 9.20252C7.40844 9.22925 7.34824 9.26883 7.2975 9.31899C7.24675 9.36915 7.20646 9.42887 7.17896 9.49471C7.15146 9.56055 7.1373 9.63119 7.1373 9.70254C7.1373 9.77389 7.15146 9.84453 7.17896 9.91037C7.20646 9.97621 7.24675 10.0359 7.2975 10.0861C7.34824 10.1363 7.40844 10.1758 7.4746 10.2026C7.54075 10.2293 7.61156 10.2426 7.6829 10.2418H13.7466C12.2953 11.8278 11.2321 13.7291 10.6407 15.796H8.19152C8.0485 15.796 7.91133 15.8528 7.8102 15.954C7.70907 16.0551 7.65225 16.1923 7.65225 16.3353C7.65225 16.4783 7.70907 16.6155 7.8102 16.7166C7.91133 16.8177 8.0485 16.8746 8.19152 16.8746H10.3762C10.2251 17.6127 10.1342 18.3618 10.1042 19.1146H4.97785C4.90703 19.1146 4.83691 19.1285 4.77148 19.1556C4.70605 19.1827 4.6466 19.2224 4.59653 19.2725C4.54645 19.3226 4.50673 19.382 4.47963 19.4475C4.45253 19.5129 4.43858 19.583 4.43858 19.6538C4.43858 19.7246 4.45253 19.7948 4.47963 19.8602C4.50673 19.9256 4.54645 19.9851 4.59653 20.0352C4.6466 20.0852 4.70605 20.125 4.77148 20.1521C4.83691 20.1792 4.90703 20.1931 4.97785 20.1931H10.1033C10.1786 22.1212 10.6538 24.0126 11.4986 25.7473H4.77479C4.70344 25.7465 4.63264 25.7598 4.56648 25.7866C4.50033 25.8133 4.44013 25.8529 4.38938 25.903C4.33863 25.9532 4.29834 26.0129 4.27085 26.0787C4.24335 26.1446 4.22919 26.2152 4.22919 26.2866C4.22919 26.3579 4.24335 26.4286 4.27085 26.4944C4.29834 26.5602 4.33863 26.62 4.38938 26.6701C4.44013 26.7203 4.50033 26.7599 4.56648 26.7866C4.63264 26.8133 4.70344 26.8266 4.77479 26.8258H12.0834C12.5622 27.6254 13.1196 28.3752 13.7473 29.0641H6.81395C6.74313 29.0641 6.67301 29.078 6.60758 29.1051C6.54215 29.1322 6.4827 29.172 6.43263 29.222C6.38255 29.2721 6.34283 29.3316 6.31573 29.397C6.28862 29.4624 6.27468 29.5326 6.27468 29.6034C6.27468 29.6742 6.28862 29.7443 6.31573 29.8097C6.34283 29.8752 6.38255 29.9346 6.43263 29.9847C6.4827 30.0348 6.54215 30.0745 6.60758 30.1016C6.67301 30.1287 6.74313 30.1426 6.81395 30.1426H14.8474C16.4552 31.5547 18.3676 32.5762 20.4353 33.1272C21.266 33.3495 22.1151 33.4956 22.9723 33.5638C22.694 32.8674 22.5147 32.1354 22.4395 31.3892C22.3566 31.3762 22.2714 31.3652 22.1863 31.35L22.147 31.3434C22.0597 31.3303 21.9724 31.315 21.885 31.2976L21.8566 31.2932C21.7649 31.2757 21.6732 31.2561 21.5816 31.2364L21.5663 31.2343C21.4698 31.2146 21.3763 31.1928 21.2802 31.1687H21.2737C21.1777 31.1447 21.0794 31.1185 20.9811 31.0923C18.7188 30.4858 16.687 29.222 15.1429 27.4609C13.5987 25.6997 12.6115 23.5202 12.306 21.1979C12.0005 18.8757 12.3905 16.515 13.4267 14.4144C14.4629 12.3138 16.0986 10.5676 18.1272 9.3967C20.1557 8.22576 22.486 7.68264 24.8232 7.83603C27.1604 7.98941 29.3997 8.83241 31.2578 10.2584C33.1159 11.6844 34.5095 13.6294 35.2622 15.8474C36.0149 18.0654 36.0931 20.4568 35.4867 22.7192C35.4605 22.8153 35.4343 22.9091 35.4059 23.0053L35.4016 23.0205C35.3754 23.1078 35.3492 23.1929 35.3208 23.2782L35.3033 23.3349C35.2815 23.4025 35.2575 23.4702 35.2356 23.5379C35.2204 23.575 35.2072 23.6144 35.1942 23.6536C35.1767 23.6995 35.1592 23.7475 35.1418 23.7934C35.1199 23.8502 35.0981 23.9091 35.0763 23.968C35.0653 23.9964 35.054 24.0248 35.0435 24.051C35.6547 24.4866 36.2022 25.0054 36.6701 25.5924C37.0224 24.8427 37.3074 24.0631 37.5215 23.2629C39.5149 15.8223 35.098 8.17204 27.6575 6.17875ZM30.7578 13.7045L31.7664 12.6937C31.8165 12.6436 31.8562 12.5842 31.8832 12.5189C31.9103 12.4535 31.9242 12.3835 31.9242 12.3127C31.9242 12.242 31.9103 12.1719 31.8832 12.1065C31.8562 12.0412 31.8165 11.9818 31.7664 11.9317C31.7164 11.8817 31.657 11.842 31.5917 11.815C31.5263 11.7879 31.4562 11.7739 31.3855 11.7739C31.3147 11.7739 31.2447 11.7879 31.1793 11.815C31.1139 11.842 31.0545 11.8817 31.0045 11.9317L29.9958 12.9404C29.9456 12.9904 29.9058 13.0498 29.8785 13.1153C29.8513 13.1807 29.8372 13.2509 29.8371 13.3217C29.8369 13.4649 29.8935 13.6022 29.9946 13.7036C30.0956 13.805 30.2328 13.8621 30.3759 13.8623C30.5191 13.8625 30.6564 13.8059 30.7578 13.7048V13.7045ZM26.8825 11.1458L27.2536 9.76589C27.2906 9.62779 27.2713 9.48062 27.1998 9.35676C27.1284 9.23291 27.0107 9.14251 26.8726 9.10545C26.7345 9.0684 26.5873 9.08772 26.4634 9.15917C26.3396 9.23063 26.2492 9.34835 26.2121 9.48646L25.843 10.8663C25.8088 11.0031 25.8297 11.1479 25.9012 11.2695C25.9727 11.391 26.089 11.4797 26.2252 11.5163C26.3614 11.553 26.5066 11.5347 26.6294 11.4654C26.7522 11.3961 26.843 11.2813 26.882 11.1458H26.8825ZM32.5546 22.49L33.9344 22.859C34.0031 22.8786 34.075 22.8844 34.146 22.8759C34.2169 22.8675 34.2854 22.845 34.3476 22.8098C34.4097 22.7745 34.4642 22.7273 34.5079 22.6708C34.5516 22.6142 34.5836 22.5496 34.602 22.4806C34.6204 22.4115 34.6249 22.3395 34.6152 22.2688C34.6055 22.198 34.5817 22.1299 34.5454 22.0684C34.5091 22.0069 34.4608 21.9532 34.4035 21.9105C34.3462 21.8679 34.281 21.8371 34.2117 21.8199L32.8319 21.451C32.7632 21.4314 32.6913 21.4257 32.6204 21.4342C32.5496 21.4427 32.4811 21.4652 32.419 21.5004C32.3569 21.5356 32.3024 21.5829 32.2588 21.6394C32.2152 21.6959 32.1832 21.7605 32.1648 21.8295C32.1464 21.8985 32.1419 21.9704 32.1516 22.0411C32.1613 22.1119 32.185 22.18 32.2212 22.2414C32.2575 22.3029 32.3057 22.3566 32.3629 22.3993C32.4201 22.4419 32.4853 22.4728 32.5546 22.49V22.49ZM18.0968 12.9404L17.0881 11.9317C17.0381 11.8815 16.9787 11.8417 16.9132 11.8145C16.8478 11.7872 16.7777 11.7732 16.7068 11.773C16.5637 11.7728 16.4263 11.8294 16.3249 11.9305C16.2236 12.0315 16.1665 12.1687 16.1662 12.3118C16.166 12.4549 16.2226 12.5923 16.3237 12.6937L17.3345 13.7024C17.3844 13.7534 17.4438 13.794 17.5094 13.8218C17.575 13.8497 17.6455 13.8642 17.7168 13.8646C17.7881 13.865 17.8588 13.8513 17.9247 13.8242C17.9906 13.7971 18.0505 13.7572 18.1009 13.7068C18.1513 13.6564 18.1912 13.5965 18.2183 13.5305C18.2454 13.4646 18.2592 13.3939 18.2587 13.3226C18.2583 13.2514 18.2438 13.1809 18.2159 13.1152C18.188 13.0496 18.1475 12.9902 18.0965 12.9404H18.0968ZM15.538 16.8157L14.1585 16.4469C14.0898 16.4273 14.018 16.4216 13.9471 16.4301C13.8762 16.4386 13.8077 16.4611 13.7456 16.4964C13.6835 16.5316 13.6291 16.5788 13.5854 16.6353C13.5418 16.6918 13.5098 16.7565 13.4914 16.8254C13.473 16.8944 13.4685 16.9664 13.4782 17.0371C13.4879 17.1078 13.5116 17.1759 13.5479 17.2374C13.5842 17.2989 13.6323 17.3525 13.6895 17.3952C13.7468 17.4379 13.8119 17.4687 13.8812 17.486L15.261 17.8571C15.3295 17.8756 15.401 17.8804 15.4713 17.8713C15.5417 17.8622 15.6095 17.8392 15.671 17.8038C15.7325 17.7683 15.7863 17.7211 15.8295 17.6648C15.8727 17.6085 15.9043 17.5442 15.9225 17.4756C15.9408 17.4071 15.9453 17.3356 15.9359 17.2652C15.9264 17.1949 15.9032 17.1272 15.8675 17.0658C15.8318 17.0045 15.7843 16.9509 15.7278 16.9079C15.6713 16.865 15.6069 16.8337 15.5383 16.8157H15.538ZM15.2585 21.4507L13.8809 21.8197C13.8116 21.8369 13.7465 21.8678 13.6892 21.9104C13.632 21.9531 13.5839 22.0068 13.5476 22.0683C13.5113 22.1297 13.4876 22.1978 13.4779 22.2686C13.4682 22.3393 13.4727 22.4112 13.4911 22.4802C13.5095 22.5492 13.5415 22.6138 13.5851 22.6703C13.6288 22.7268 13.6832 22.7741 13.7453 22.8093C13.8074 22.8445 13.8759 22.867 13.9468 22.8755C14.0177 22.884 14.0895 22.8783 14.1582 22.8587L15.538 22.4897C15.6735 22.4507 15.7883 22.3599 15.8576 22.2371C15.9269 22.1143 15.9452 21.9691 15.9086 21.8329C15.8719 21.6967 15.7833 21.5803 15.6617 21.5089C15.5401 21.4374 15.3953 21.4165 15.2585 21.4507ZM17.3348 25.6033L16.324 26.612C16.2229 26.7134 16.1663 26.8507 16.1665 26.9938C16.1668 27.137 16.2239 27.2741 16.3252 27.3752C16.4266 27.4762 16.564 27.5328 16.7071 27.5326C16.8502 27.5324 16.9874 27.4753 17.0884 27.3739L18.0971 26.3653C18.1962 26.2638 18.2513 26.1274 18.2505 25.9856C18.2497 25.8438 18.193 25.708 18.0927 25.6077C17.9924 25.5074 17.8566 25.4507 17.7148 25.4499C17.573 25.4491 17.4366 25.5042 17.3351 25.6033H17.3348ZM21.8675 27.7801C21.7297 27.7437 21.5832 27.7632 21.4597 27.8344C21.3362 27.9055 21.2459 28.0225 21.2082 28.16L20.8392 29.5398C20.8022 29.6779 20.8215 29.825 20.8929 29.9489C20.9644 30.0728 21.0821 30.1632 21.2202 30.2002C21.3583 30.2373 21.5055 30.218 21.6293 30.1465C21.7532 30.0751 21.8436 29.9574 21.8807 29.8193L22.2496 28.4394C22.2679 28.371 22.2725 28.2997 22.2632 28.2295C22.2539 28.1594 22.2309 28.0917 22.1954 28.0305C22.1599 27.9692 22.1127 27.9156 22.0564 27.8726C22.0001 27.8297 21.9359 27.7982 21.8675 27.7801ZM22.2496 10.8663L21.8807 9.48653C21.8436 9.34843 21.7532 9.2307 21.6293 9.15925C21.5055 9.0878 21.3583 9.06847 21.2202 9.10553C21.0821 9.14258 20.9644 9.23298 20.8929 9.35684C20.8215 9.48069 20.8022 9.62786 20.8392 9.76596L21.2082 11.1436C21.2262 11.2123 21.2575 11.2767 21.3005 11.3332C21.3434 11.3897 21.3971 11.4371 21.4584 11.4728C21.5197 11.5085 21.5874 11.5318 21.6578 11.5412C21.7281 11.5506 21.7996 11.5461 21.8681 11.5279C21.9367 11.5096 22.001 11.478 22.0573 11.4348C22.1136 11.3917 22.1608 11.3378 22.1963 11.2763C22.2317 11.2149 22.2547 11.147 22.2638 11.0766C22.273 11.0063 22.2681 10.9348 22.2496 10.8663ZM32.8344 17.8549L34.2119 17.4859C34.2813 17.4687 34.3465 17.4379 34.4038 17.3953C34.4611 17.3526 34.5093 17.299 34.5457 17.2374C34.582 17.1759 34.6058 17.1078 34.6155 17.037C34.6252 16.9663 34.6207 16.8943 34.6023 16.8253C34.5839 16.7562 34.5519 16.6916 34.5082 16.635C34.4645 16.5785 34.41 16.5313 34.3479 16.496C34.2857 16.4608 34.2172 16.4383 34.1463 16.4299C34.0753 16.4214 34.0034 16.4272 33.9347 16.4468L32.5549 16.8159C32.4193 16.8549 32.3046 16.9456 32.2353 17.0685C32.166 17.1913 32.1477 17.3365 32.1843 17.4727C32.2209 17.6089 32.3096 17.7252 32.4312 17.7967C32.5527 17.8682 32.6975 17.8891 32.8344 17.8549ZM25.1536 13.4404L23.8391 18.3483C23.6798 18.3741 23.5266 18.4288 23.3871 18.5099H23.3849C23.0975 18.6763 22.8833 18.9448 22.785 19.262C22.6866 19.5792 22.7114 19.9218 22.8542 20.2216C22.9971 20.5214 23.2477 20.7563 23.556 20.8797C23.8643 21.0031 24.2078 21.0059 24.518 20.8874L26.138 22.5075C26.188 22.5577 26.2475 22.5975 26.3129 22.6247C26.3783 22.652 26.4485 22.666 26.5193 22.6661C26.5902 22.6663 26.6604 22.6524 26.7259 22.6254C26.7915 22.5984 26.851 22.5587 26.9012 22.5087C26.9514 22.4587 26.9913 22.3992 27.0185 22.3338C27.0457 22.2684 27.0598 22.1982 27.0599 22.1273C27.06 22.0565 27.0462 21.9863 27.0191 21.9207C26.9921 21.8552 26.9525 21.7957 26.9024 21.7455L25.2802 20.1255C25.2974 20.0827 25.312 20.039 25.324 19.9945C25.3892 19.7477 25.3819 19.4872 25.3029 19.2445C25.2239 19.0017 25.0766 18.7868 24.8786 18.6256L26.1951 13.7197C26.2135 13.6514 26.2182 13.58 26.209 13.5098C26.1997 13.4396 26.1768 13.3719 26.1414 13.3106C26.106 13.2493 26.0589 13.1955 26.0028 13.1524C25.9466 13.1093 25.8825 13.0777 25.8141 13.0593C25.676 13.0223 25.5289 13.0416 25.405 13.113C25.2812 13.1845 25.1908 13.3022 25.1537 13.4403L25.1536 13.4404ZM4.56957 10.2422H6.08037C6.15172 10.2431 6.22252 10.2297 6.28868 10.203C6.35483 10.1763 6.41503 10.1367 6.46578 10.0865C6.51653 10.0364 6.55682 9.97666 6.58431 9.91082C6.61181 9.84498 6.62597 9.77434 6.62597 9.70299C6.62597 9.63164 6.61181 9.561 6.58431 9.49516C6.55682 9.42932 6.51653 9.36959 6.46578 9.31943C6.41503 9.26928 6.35483 9.22969 6.28868 9.20297C6.22252 9.17624 6.15172 9.16292 6.08037 9.16375H4.56957C4.49823 9.16292 4.42743 9.17624 4.36127 9.20297C4.29511 9.22969 4.23491 9.26928 4.18417 9.31943C4.13342 9.36959 4.09313 9.42932 4.06563 9.49516C4.03813 9.561 4.02397 9.63164 4.02397 9.70299C4.02397 9.77434 4.03813 9.84498 4.06563 9.91082C4.09313 9.97666 4.13342 10.0364 4.18417 10.0865C4.23491 10.1367 4.29511 10.1763 4.36127 10.203C4.42743 10.2297 4.49823 10.2431 4.56957 10.2422ZM1.9668 13.5582H9.3506C9.49362 13.5582 9.63079 13.5014 9.73192 13.4003C9.83305 13.2992 9.88987 13.162 9.88987 13.019C9.88987 12.8759 9.83305 12.7388 9.73192 12.6376C9.63079 12.5365 9.49362 12.4797 9.3506 12.4797H1.9668C1.82377 12.4797 1.68661 12.5365 1.58547 12.6376C1.48434 12.7388 1.42752 12.8759 1.42752 13.019C1.42752 13.162 1.48434 13.2992 1.58547 13.4003C1.68661 13.5014 1.82377 13.5582 1.9668 13.5582ZM1.53046 22.9703C1.53044 23.0411 1.54436 23.1113 1.57146 23.1767C1.59855 23.2421 1.63827 23.3016 1.68835 23.3517C1.73843 23.4018 1.79789 23.4415 1.86333 23.4686C1.92877 23.4957 1.99891 23.5096 2.06974 23.5096H9.3506C9.42142 23.5096 9.49154 23.4956 9.55697 23.4685C9.6224 23.4414 9.68184 23.4017 9.73192 23.3516C9.782 23.3015 9.82172 23.2421 9.84882 23.1767C9.87592 23.1112 9.88987 23.0411 9.88987 22.9703C9.88987 22.8995 9.87592 22.8293 9.84882 22.7639C9.82172 22.6985 9.782 22.639 9.73192 22.589C9.68184 22.5389 9.6224 22.4992 9.55697 22.4721C9.49154 22.445 9.42142 22.431 9.3506 22.431H2.06974C1.99886 22.4308 1.92864 22.4446 1.86311 22.4716C1.79759 22.4987 1.73805 22.5384 1.68793 22.5885C1.63781 22.6386 1.5981 22.6981 1.57108 22.7637C1.54405 22.8292 1.53025 22.8994 1.53046 22.9703ZM5.21364 29.0637H1.9668C1.89598 29.0637 1.82585 29.0776 1.76043 29.1047C1.695 29.1318 1.63555 29.1715 1.58547 29.2216C1.5354 29.2717 1.49567 29.3311 1.46857 29.3966C1.44147 29.462 1.42752 29.5321 1.42752 29.6029C1.42752 29.6737 1.44147 29.7439 1.46857 29.8093C1.49567 29.8747 1.5354 29.9342 1.58547 29.9843C1.63555 30.0343 1.695 30.074 1.76043 30.1012C1.82585 30.1283 1.89598 30.1422 1.9668 30.1422H5.21364C5.28446 30.1422 5.35459 30.1283 5.42002 30.1012C5.48544 30.074 5.54489 30.0343 5.59497 29.9843C5.64504 29.9342 5.68477 29.8747 5.71187 29.8093C5.73897 29.7439 5.75292 29.6737 5.75292 29.6029C5.75292 29.5321 5.73897 29.462 5.71187 29.3966C5.68477 29.3311 5.64504 29.2717 5.59497 29.2216C5.54489 29.1715 5.48544 29.1318 5.42002 29.1047C5.35459 29.0776 5.28446 29.0637 5.21364 29.0637ZM3.6002 15.7961C3.45718 15.7961 3.32001 15.8529 3.21888 15.954C3.11775 16.0552 3.06093 16.1923 3.06093 16.3354C3.06093 16.4784 3.11775 16.6156 3.21888 16.7167C3.32001 16.8178 3.45718 16.8746 3.6002 16.8746H6.59122C6.73424 16.8746 6.87141 16.8178 6.97254 16.7167C7.07368 16.6156 7.13049 16.4784 7.13049 16.3354C7.13049 16.1923 7.07368 16.0552 6.97254 15.954C6.87141 15.8529 6.73424 15.7961 6.59122 15.7961H3.6002ZM3.91459 19.6539C3.91481 19.583 3.90101 19.5128 3.87398 19.4473C3.84696 19.3818 3.80724 19.3222 3.75712 19.2721C3.70701 19.222 3.64747 19.1823 3.58195 19.1552C3.51642 19.1282 3.4462 19.1144 3.37532 19.1146H0.539273C0.396249 19.1146 0.259083 19.1714 0.15795 19.2726C0.0568161 19.3737 0 19.5109 0 19.6539C0 19.7969 0.0568161 19.9341 0.15795 20.0352C0.259083 20.1364 0.396249 20.1932 0.539273 20.1932H3.37532C3.44615 20.1932 3.51629 20.1793 3.58173 20.1522C3.64717 20.1251 3.70663 20.0854 3.75671 20.0353C3.80679 19.9852 3.84651 19.9257 3.8736 19.8603C3.90069 19.7949 3.91462 19.7247 3.91459 19.6539ZM37.3381 30.5834C37.3381 31.9539 36.9316 33.2937 36.1702 34.4332C35.4087 35.5728 34.3265 36.4609 33.0602 36.9854C31.794 37.5099 30.4007 37.6471 29.0565 37.3797C27.7122 37.1123 26.4775 36.4523 25.5084 35.4832C24.5393 34.514 23.8793 33.2793 23.6119 31.9351C23.3446 30.5908 23.4818 29.1975 24.0063 27.9313C24.5308 26.6651 25.419 25.5828 26.5586 24.8214C27.6981 24.06 29.0379 23.6536 30.4085 23.6536C31.3185 23.6535 32.2196 23.8328 33.0604 24.181C33.9011 24.5293 34.6651 25.0397 35.3086 25.6832C35.952 26.3267 36.4625 27.0907 36.8107 27.9314C37.1589 28.7722 37.3382 29.6733 37.3381 30.5834ZM34.5545 27.4132C34.4731 27.3313 34.3764 27.2662 34.2698 27.2218C34.1632 27.1774 34.0488 27.1545 33.9333 27.1545C33.8178 27.1545 33.7035 27.1774 33.5969 27.2218C33.4903 27.2662 33.3935 27.3313 33.3122 27.4132L28.8344 31.8886L27.5047 30.5571C27.3393 30.3938 27.1161 30.3025 26.8836 30.3032C26.6512 30.304 26.4285 30.3966 26.2641 30.561C26.0998 30.7253 26.0071 30.948 26.0064 31.1805C26.0056 31.4129 26.0969 31.6362 26.2602 31.8016L28.2143 33.7535C28.379 33.9182 28.6025 34.0107 28.8354 34.0107C29.0683 34.0107 29.2917 33.9182 29.4565 33.7535L34.5545 28.6559C34.7192 28.4911 34.8117 28.2676 34.8117 28.0346C34.8117 27.8016 34.7192 27.5781 34.5545 27.4132Z" fill="#A31711"/>
</g>
<defs>
<clipPath id="clip0_2002_4362">
<rect width="38" height="38" fill="white"/>
</clipPath>
</defs>
</svg>