<svg width="38" height="38" viewBox="0 0 38 38" fill="none" xmlns="http://www.w3.org/2000/svg">
<g clip-path="url(#clip0_2002_4293)">
<path d="M35.5618 31.6189L30.8507 22.1958C32.3928 19.9214 33.2947 17.1793 33.2947 14.2303C33.2947 6.38368 26.911 0 19.0644 0C11.2178 0 4.83412 6.38368 4.83412 14.2303C4.83412 17.1793 5.73605 19.9216 7.27841 22.1963L2.56668 31.6189C2.39418 31.9642 2.41273 32.3739 2.61538 32.7021C2.81833 33.0302 3.17666 33.2303 3.56254 33.2303H8.96804L12.2113 37.5547C12.423 37.8365 12.7535 38 13.102 38C13.5638 38 13.9277 37.7246 14.0978 37.3845L18.5649 28.4507C18.7307 28.4565 18.8971 28.4606 19.0644 28.4606C19.2317 28.4606 19.3981 28.4565 19.5639 28.4507L24.031 37.3845C24.2006 37.724 24.5647 38 25.0268 38C25.375 38 25.7058 37.8365 25.9172 37.5547L29.1608 33.2303H34.5663C34.9521 33.2303 35.3105 33.0302 35.5131 32.7021C35.7161 32.3739 35.7346 31.9642 35.5618 31.6189ZM12.9121 34.7776L10.4153 31.449C10.2051 31.1687 9.8752 31.0037 9.52469 31.0037H5.3638L8.81845 24.095C10.78 26.1314 13.3406 27.5871 16.2139 28.1736L12.9121 34.7776ZM7.06068 14.2303C7.06068 7.61148 12.4456 2.22656 19.0644 2.22656C25.6832 2.22656 31.0681 7.61148 31.0681 14.2303C31.0681 20.8491 25.6832 26.234 19.0644 26.234C12.4456 26.234 7.06068 20.8491 7.06068 14.2303ZM28.6038 31.0037C28.2536 31.0037 27.9237 31.1687 27.7132 31.449L25.2167 34.7776L21.9146 28.1736C24.7882 27.5868 27.3491 26.1314 29.3107 24.0944L32.7647 31.0034H28.6038V31.0037Z" fill="#A31711"/>
<path d="M24.7473 16.0767L27.8563 12.3658C28.1028 12.0718 28.1805 11.6717 28.0619 11.307C27.9433 10.942 27.6453 10.664 27.2733 10.5709L22.577 9.39615L20.008 5.29237C19.8045 4.96709 19.4479 4.76965 19.0643 4.76965C18.6808 4.76965 18.3242 4.96709 18.1206 5.29237L15.5523 9.39615L10.8562 10.5709C10.4839 10.664 10.1859 10.942 10.0673 11.3067C9.94904 11.6717 10.0264 12.0718 10.2729 12.3658L13.3819 16.0767L13.0474 20.9059C13.021 21.2885 13.1932 21.6579 13.5034 21.8835C13.9745 22.2258 14.4538 22.0638 14.5741 22.0154L19.0643 20.2057L23.5546 22.0157C23.9103 22.1589 24.3147 22.109 24.6249 21.8837C24.9354 21.6582 25.1076 21.2888 25.0813 20.9061L24.7473 16.0767ZM22.7524 14.9907C22.5674 15.2116 22.4752 15.4951 22.4952 15.7824L22.7373 19.2855L19.4806 17.9728C19.1197 17.8272 18.8031 17.9101 18.6483 17.9728L15.3916 19.2855L15.6343 15.7827C15.654 15.4954 15.5618 15.2116 15.3769 14.9907L13.1219 12.2994L16.5281 11.4473C16.8076 11.3774 17.0488 11.202 17.2016 10.9579L19.0646 7.98135L20.9279 10.9579C21.0807 11.202 21.3219 11.3774 21.6014 11.4473L25.0076 12.2994L22.7524 14.9907Z" fill="#A31711"/>
</g>
<defs>
<clipPath id="clip0_2002_4293">
<rect width="38" height="38" fill="white"/>
</clipPath>
</defs>
</svg>