<svg width="38" height="38" viewBox="0 0 38 38" fill="none" xmlns="http://www.w3.org/2000/svg">
<g clip-path="url(#clip0_2002_4302)">
<path d="M17.9692 38H0V4.75C0 2.13117 2.13117 0 4.75 0H23.75C26.3688 0 28.5 2.13117 28.5 4.75V12.7601C27.9791 12.7031 27.4518 12.6667 26.9167 12.6667C26.3815 12.6667 25.8542 12.7015 25.3333 12.7601V4.75C25.3333 3.876 24.624 3.16667 23.75 3.16667H4.75C3.876 3.16667 3.16667 3.876 3.16667 4.75V34.8333H15.0702C15.8713 36.0303 16.8514 37.0959 17.9692 38ZM17.9692 15.8333H6.33333V19H15.0702C15.8713 17.803 16.8514 16.7374 17.9692 15.8333ZM6.33333 26.9167H12.6667C12.6667 25.8273 12.7997 24.7697 13.0324 23.75H6.33333V26.9167ZM38 26.9167C38 33.0268 33.0268 38 26.9167 38C20.8066 38 15.8333 33.0268 15.8333 26.9167C15.8333 20.8066 20.8066 15.8333 26.9167 15.8333C33.0268 15.8333 38 20.8066 38 26.9167ZM34.8333 26.9167C34.8333 22.5514 31.2819 19 26.9167 19C22.5514 19 19 22.5514 19 26.9167C19 31.2819 22.5514 34.8333 26.9167 34.8333C31.2819 34.8333 34.8333 31.2819 34.8333 26.9167ZM22.1667 7.91667H6.33333V11.0833H22.1667V7.91667ZM31.0159 23.2623L25.9049 28.2894L23.3241 25.7878L21.1185 28.0614L24.0397 30.8924C24.5369 31.3912 25.2003 31.6667 25.9065 31.6667C26.6127 31.6667 27.2761 31.3912 27.7638 30.9035L33.2357 25.5217L31.0159 23.2623Z" fill="#A31711"/>
</g>
<defs>
<clipPath id="clip0_2002_4302">
<rect width="38" height="38" fill="white"/>
</clipPath>
</defs>
</svg>