<svg width="1867" height="485" viewBox="0 0 1867 485" fill="none" xmlns="http://www.w3.org/2000/svg">
    <path d="M577.479 59.4599V89.1897H614.155C617.271 89.1897 619.668 90.1487 621.346 91.827C623.503 93.745 624.462 96.1426 624.462 99.0197C624.462 101.417 623.503 103.575 621.346 105.733C619.189 107.651 616.791 108.37 614.155 108.37H577.479V147.69C577.479 150.807 576.52 153.205 574.363 154.883C572.206 157.041 569.808 158 567.172 158C564.055 158 561.419 157.041 559.501 155.362C557.344 153.444 556.385 150.807 556.385 147.69V49.8696C556.385 46.7528 557.344 44.3552 559.501 42.6769C561.658 40.5191 564.056 39.5601 566.692 39.5601H621.586C624.702 39.5601 627.099 40.5191 628.777 42.1974C630.934 44.1154 631.893 46.513 631.893 49.3901C631.893 51.7877 630.934 53.9454 628.777 56.1033C626.62 58.0213 624.222 58.7406 621.586 58.7406H577.479V59.4599Z" fill="#06ACF5"/>
    <path d="M787.943 69.2897C789.861 71.2077 790.58 73.845 790.58 76.9619V148.409C790.58 151.526 789.621 153.924 787.943 155.602C786.026 157.76 783.629 158.719 780.752 158.719C777.876 158.719 775.239 157.76 773.561 156.081C771.643 154.163 770.924 151.766 770.445 148.889C767.808 152.245 763.733 154.883 758.938 157.28C754.144 159.678 749.35 160.637 743.837 160.637C735.926 160.637 728.975 158.479 722.742 154.643C716.27 150.807 711.476 145.053 707.88 137.86C704.285 130.907 702.367 122.755 702.367 113.645C702.367 104.534 704.285 96.6219 707.88 89.4292C711.476 82.2365 716.27 76.7221 722.742 72.6463C729.215 68.5704 735.687 66.6523 743.357 66.6523C748.871 66.6523 753.905 67.6114 758.459 69.7692C763.253 71.927 767.328 74.3245 770.684 77.4414V77.2016C770.684 74.0848 771.643 71.6872 773.321 70.0089C775.239 67.8511 777.636 66.8921 780.512 66.8921C783.629 66.4126 786.026 67.3716 787.943 69.2897ZM764.212 133.784C768.767 128.27 771.164 121.557 771.164 113.405C771.164 105.253 768.767 98.5399 764.212 93.0255C759.658 87.5112 753.665 84.8738 746.234 84.8738C738.803 84.8738 733.29 87.5112 728.256 93.0255C723.701 98.5399 721.304 105.253 721.304 113.405C721.304 121.557 723.701 128.27 728.256 133.784C732.81 139.299 738.803 141.936 746.234 141.936C753.665 141.696 759.658 138.819 764.212 133.784Z" fill="#06ACF5"/>
    <path d="M936.324 70.968C942.077 74.0848 945.194 77.9209 945.194 82.716C945.194 85.1136 944.475 87.2714 943.036 89.4292C941.598 91.3473 939.68 92.0665 937.283 92.0665C935.366 92.0665 933.927 91.8268 932.729 91.1075C931.53 90.3882 930.571 89.9087 929.373 88.9497C928.174 87.9907 927.215 87.5112 926.257 86.7919C925.058 86.0726 923.62 85.5931 921.462 85.3534C919.305 85.1136 917.627 84.6341 915.949 84.6341C907.559 84.6341 900.847 87.2714 896.053 92.5461C891.259 97.5809 888.862 104.774 888.862 113.165C888.862 121.557 891.259 128.03 896.053 133.544C900.847 139.059 907.08 141.696 914.511 141.696C920.024 141.696 924.099 140.977 926.976 139.538C927.695 139.299 928.414 138.579 929.613 137.62C930.811 136.661 932.01 136.182 932.968 135.702C933.927 135.462 935.126 134.983 936.564 134.983C939.201 134.983 941.598 135.942 943.276 137.62C944.714 139.538 945.673 141.936 945.673 144.573C945.673 147.211 944.235 149.608 940.879 152.245C937.763 154.643 933.688 156.561 928.414 158C923.38 159.438 917.867 160.157 911.634 160.157C902.765 160.157 895.334 158 888.622 154.163C881.91 150.327 876.876 144.573 873.281 137.141C869.685 129.708 867.768 122.036 867.768 113.165C867.768 104.294 869.685 95.9027 873.521 88.9497C877.116 81.9968 882.63 76.2426 889.341 72.1668C896.053 68.0909 903.964 66.1729 912.353 66.1729C922.661 66.4126 930.332 68.0909 936.324 70.968Z" fill="#06ACF5"/>
    <path d="M1095.97 70.9679C1097.89 73.1257 1098.61 75.5233 1098.61 78.1606V121.077C1098.61 133.305 1095.25 142.895 1088.54 149.608C1081.83 156.561 1072.24 159.918 1059.77 159.918C1047.31 159.918 1037.96 156.561 1031.25 149.608C1024.54 142.655 1021.18 133.305 1021.18 121.077V78.1606C1021.18 75.0438 1022.14 72.6462 1023.82 70.9679C1025.74 68.8101 1028.13 67.8511 1031.01 67.8511C1033.89 67.8511 1036.52 68.8101 1038.2 70.9679C1040.12 73.1257 1040.84 75.5233 1040.84 78.1606V121.077C1040.84 128.03 1042.28 133.305 1045.39 136.421C1048.51 139.778 1053.06 141.217 1059.06 141.217C1065.05 141.217 1070.08 139.778 1072.96 136.421C1076.07 133.065 1077.51 128.03 1077.51 121.077V78.1606C1077.51 75.0438 1078.47 72.6462 1080.15 70.9679C1082.07 68.8101 1084.46 67.8511 1087.34 67.8511C1090.22 67.8511 1094.29 69.2896 1095.97 70.9679Z" fill="#06ACF5"/>
    <path d="M1200.96 155.602C1198.81 157.76 1196.41 158.719 1193.77 158.719C1191.14 158.719 1188.74 157.76 1186.82 155.602C1184.9 153.444 1184.18 151.047 1184.18 148.409V43.8755C1184.18 40.7586 1185.14 38.3611 1187.3 36.6828C1189.46 34.525 1191.85 33.5659 1194.49 33.5659C1197.13 33.5659 1199.53 34.525 1201.44 36.6828C1203.36 38.8406 1204.08 41.2381 1204.08 43.8755V148.409C1203.84 151.286 1202.88 153.684 1200.96 155.602Z" fill="#06ACF5"/>
    <path d="M1367.08 36.2033C1369 38.1213 1369.72 40.7587 1369.72 43.8755V148.409C1369.72 151.526 1368.76 153.924 1367.08 155.602C1365.16 157.76 1362.77 158.719 1359.89 158.719C1356.77 158.719 1354.38 157.76 1352.7 156.081C1350.78 154.163 1350.06 151.766 1349.58 148.889C1346.95 152.245 1342.87 154.883 1338.08 157.28C1333.28 159.678 1328.49 160.637 1322.97 160.637C1315.06 160.637 1308.11 158.479 1301.88 154.643C1295.41 150.807 1290.61 145.053 1287.02 137.86C1283.42 130.907 1281.5 122.755 1281.5 113.645C1281.5 104.534 1283.42 96.6219 1287.02 89.4292C1290.61 82.2365 1295.41 76.7221 1301.88 72.6463C1308.35 68.8102 1314.82 66.6524 1322.5 66.6524C1328.01 66.6524 1333.04 67.6114 1337.6 69.7692C1342.39 71.927 1346.47 74.3246 1349.82 77.4414V44.1152C1349.82 40.9984 1350.78 38.6008 1352.46 36.9225C1354.38 35.0045 1356.77 33.8057 1359.65 33.8057C1363.01 33.566 1365.4 34.2852 1367.08 36.2033ZM1343.83 133.784C1348.38 128.27 1350.78 121.557 1350.78 113.405C1350.78 105.253 1348.38 98.5399 1343.83 93.0256C1339.27 87.5112 1333.28 84.8738 1325.85 84.8738C1318.42 84.8738 1312.91 87.5112 1307.87 93.0256C1303.32 98.5399 1300.92 105.253 1300.92 113.405C1300.92 121.557 1303.32 128.27 1307.87 133.784C1312.43 139.299 1318.42 141.936 1325.85 141.936C1333.28 141.696 1339.27 138.819 1343.83 133.784Z" fill="#06ACF5"/>
    <path d="M1533.44 69.2897C1535.36 71.2077 1536.08 73.845 1536.08 76.9619V148.409C1536.08 151.526 1535.12 153.924 1533.44 155.602C1531.52 157.76 1529.12 158.719 1526.25 158.719C1523.13 158.719 1520.73 157.76 1519.06 156.081C1517.14 154.163 1516.42 151.766 1515.94 148.889C1513.3 152.245 1509.23 154.883 1504.43 157.28C1499.64 159.678 1494.85 160.637 1489.33 160.637C1481.42 160.637 1474.47 158.479 1468.24 154.643C1461.77 150.807 1456.97 145.053 1453.38 137.86C1449.78 130.907 1447.86 122.755 1447.86 113.645C1447.86 104.534 1449.78 96.6219 1453.38 89.4292C1456.97 82.2365 1461.77 76.7221 1468.24 72.6463C1474.71 68.8102 1481.18 66.6523 1488.85 66.6523C1494.37 66.6523 1499.4 67.6114 1503.96 69.7692C1508.75 71.927 1512.82 74.3245 1516.18 77.4414V77.2016C1516.18 74.0848 1517.14 71.6872 1518.82 70.0089C1520.73 67.8511 1523.13 66.8921 1526.01 66.8921C1529.36 66.4126 1531.76 67.3716 1533.44 69.2897ZM1510.19 133.784C1514.74 128.27 1517.14 121.557 1517.14 113.405C1517.14 105.253 1514.74 98.5399 1510.19 93.0255C1505.63 87.5112 1499.64 84.8738 1492.21 84.8738C1484.78 84.8738 1479.27 87.5112 1474.23 93.0255C1469.68 98.5399 1467.28 105.253 1467.28 113.405C1467.28 121.557 1469.68 128.27 1474.23 133.784C1478.79 139.299 1484.78 141.936 1492.21 141.936C1499.64 141.696 1505.39 138.819 1510.19 133.784Z" fill="#06ACF5"/>
    <path d="M1699.8 36.2033C1701.72 38.1213 1702.43 40.7587 1702.43 43.8755V148.409C1702.43 151.526 1701.48 153.924 1699.8 155.602C1697.88 157.76 1695.48 158.719 1692.61 158.719C1689.49 158.719 1687.09 157.76 1685.42 156.081C1683.5 154.163 1682.78 151.766 1682.3 148.889C1679.66 152.245 1675.59 154.883 1670.79 157.28C1666 159.678 1661.2 160.637 1655.69 160.637C1647.78 160.637 1640.83 158.479 1634.6 154.643C1628.12 150.807 1623.33 145.053 1619.74 137.86C1616.14 130.907 1614.22 122.755 1614.22 113.645C1614.22 104.534 1616.14 96.6219 1619.74 89.4292C1623.33 82.2365 1628.12 76.7221 1634.6 72.6463C1641.07 68.5704 1647.54 66.6524 1655.21 66.6524C1660.73 66.6524 1665.76 67.6114 1670.31 69.7692C1675.11 71.927 1679.18 74.3246 1682.54 77.4414V44.1152C1682.54 40.9984 1683.5 38.6008 1685.18 36.9225C1687.09 35.0045 1689.49 33.8057 1692.37 33.8057C1695.72 33.566 1698.12 34.2852 1699.8 36.2033ZM1676.55 133.784C1681.1 128.27 1683.5 121.557 1683.5 113.405C1683.5 105.253 1681.1 98.5399 1676.55 93.0256C1671.99 87.5112 1666 84.8738 1658.57 84.8738C1651.14 84.8738 1645.62 87.5112 1640.59 93.0256C1636.04 98.5399 1633.64 105.253 1633.64 113.405C1633.64 121.557 1636.04 128.27 1640.59 133.784C1645.14 139.299 1651.14 141.936 1658.57 141.936C1666 141.696 1671.75 138.819 1676.55 133.784Z" fill="#06ACF5"/>
    <path d="M1863.76 117.96C1861.6 119.878 1859.2 120.358 1856.81 120.358H1800.95C1802.15 127.071 1805.51 132.106 1810.3 136.182C1815.1 139.778 1820.61 141.936 1826.6 141.936C1831.16 141.936 1834.75 141.696 1837.63 140.737C1840.27 139.778 1842.18 138.819 1843.62 138.1C1845.06 137.141 1846.02 136.661 1846.74 136.182C1848.9 135.223 1850.57 134.743 1852.49 134.743C1854.89 134.743 1857.05 135.702 1858.48 137.141C1860.4 139.059 1860.88 140.737 1860.88 143.135C1860.88 146.251 1859.44 148.889 1856.09 151.286C1852.97 153.924 1848.9 156.081 1843.38 158C1837.87 159.918 1832.84 160.637 1827.32 160.637C1817.97 160.637 1809.34 158.479 1802.39 154.643C1795.44 150.807 1789.93 145.292 1786.09 138.34C1782.26 131.387 1780.34 123.475 1780.34 115.083C1780.34 105.493 1782.5 96.8616 1786.33 89.669C1790.17 82.4763 1795.68 76.7221 1802.39 72.6462C1809.1 68.8101 1816.06 66.8921 1823.49 66.8921C1830.92 66.8921 1838.11 69.0499 1844.58 72.886C1851.05 76.7221 1856.33 82.2365 1860.4 89.1894C1864.48 96.1424 1866.4 103.335 1866.4 111.727C1866.87 114.124 1865.68 116.282 1863.76 117.96ZM1801.19 103.575H1845.54V102.376C1845.3 97.5809 1842.9 93.5051 1838.59 90.1485C1834.27 86.7919 1829.72 85.1136 1824.45 85.1136C1811.02 84.8738 1803.11 91.1075 1801.19 103.575Z" fill="#06ACF5"/>
    <path d="M713.874 273.322C713.874 277.158 712.436 281.234 709.559 284.831C706.443 288.667 702.608 290.825 698.053 290.825C694.697 290.825 691.821 289.866 688.465 288.427C679.356 284.111 669.528 282.193 658.741 282.193C645.797 282.193 634.291 284.831 624.462 290.345C614.874 295.859 607.203 303.532 602.169 313.601C597.136 323.431 594.259 334.94 594.259 347.887C594.259 369.944 600.252 386.727 611.998 398.235C623.743 409.744 639.324 415.498 658.741 415.498C670.247 415.498 680.075 413.34 688.465 409.264C691.821 407.826 694.697 407.106 697.574 407.106C702.368 407.106 706.683 409.264 710.039 413.1C712.675 416.697 714.353 420.533 714.353 424.609C714.353 427.725 713.634 430.363 712.196 432.76C710.758 435.158 708.6 437.076 705.964 438.515C691.581 445.707 675.76 449.304 659.46 449.304C641.002 449.304 624.223 445.467 608.881 437.556C593.54 429.644 581.075 418.375 572.206 403.27C563.337 388.166 558.303 369.704 558.303 348.366C558.303 329.425 562.617 312.163 571.247 297.058C579.877 281.954 592.102 270.206 607.443 261.574C622.785 253.183 640.044 248.867 659.22 248.867C675.76 248.867 691.102 252.464 705.724 259.656C710.758 262.054 713.874 266.849 713.874 273.322Z" fill="#A31711"/>
    <path d="M911.874 398.715C903.724 414.059 892.218 426.527 877.835 435.158C863.453 444.269 847.153 448.824 828.935 448.824C810.717 448.824 794.656 444.269 780.034 435.158C765.651 426.047 754.145 414.059 745.995 398.715C737.845 383.371 734.01 366.348 734.01 347.647C734.01 328.946 737.845 312.163 745.995 296.579C754.145 280.995 765.651 268.767 780.034 260.136C794.417 251.025 810.717 246.47 828.935 246.47C847.153 246.47 863.213 251.025 877.835 260.136C892.218 269.247 903.724 281.234 911.874 296.579C920.024 311.923 924.339 328.946 924.339 347.647C924.339 366.348 920.024 383.371 911.874 398.715ZM880.232 313.602C875.198 303.292 868.247 295.14 859.138 289.386C850.029 283.392 840.201 280.275 828.695 280.275C817.189 280.275 806.881 283.392 798.252 288.907C789.622 294.901 782.671 302.812 777.397 313.122C772.603 323.432 769.966 334.94 769.966 347.407C769.966 359.875 772.363 371.143 777.397 381.692C782.191 392.002 789.143 400.154 798.252 405.908C806.881 411.902 817.189 414.539 828.695 414.539C840.201 414.539 850.029 411.422 859.138 405.428C868.247 399.434 875.198 391.283 880.232 381.213C885.266 370.903 887.663 359.875 887.663 347.167C887.663 334.46 885.266 323.911 880.232 313.602Z" fill="#A31711"/>
    <path d="M1116.59 253.902C1119.22 257.019 1120.9 260.615 1120.9 265.171V428.924C1120.9 433.719 1119.46 438.035 1116.11 440.912C1112.75 444.269 1108.91 445.707 1104.12 445.707C1101.48 445.707 1099.09 445.467 1096.21 444.508C1093.81 443.549 1091.9 442.351 1090.7 440.912L987.622 310.005V429.644C987.622 434.199 986.183 437.795 983.307 440.912C980.191 444.029 976.595 445.467 971.801 445.467C967.007 445.467 963.651 444.029 961.014 440.912C958.377 437.795 956.699 434.199 956.699 429.644V265.89C956.699 261.095 958.137 256.779 961.493 253.902C964.849 250.545 968.685 249.107 973.479 249.107C976.116 249.107 978.992 249.826 981.629 251.025C984.266 252.224 986.423 253.662 987.622 255.58L1089.74 385.768V265.171C1089.74 260.615 1091.18 257.019 1094.05 253.902C1097.17 250.785 1100.76 249.347 1105.32 249.347C1109.87 249.347 1113.47 251.025 1116.59 253.902Z" fill="#A31711"/>
    <path d="M1286.06 418.615C1289.42 421.971 1290.85 425.568 1290.85 430.123C1290.85 434.918 1289.42 438.514 1286.06 441.631C1282.7 444.748 1278.87 446.187 1274.07 446.187H1180.11C1175.31 446.187 1171 444.748 1168.12 441.392C1164.77 438.035 1163.33 434.199 1163.33 429.404V267.089C1163.33 262.293 1164.77 257.978 1168.12 255.101C1171.48 251.744 1175.31 250.306 1180.11 250.306H1274.07C1278.87 250.306 1283.18 251.744 1286.06 254.861C1289.42 257.978 1290.85 261.814 1290.85 266.849C1290.85 271.884 1289.42 275.24 1286.06 278.357C1282.7 281.474 1278.87 282.673 1273.6 282.673H1197.61V330.384H1260.89C1265.68 330.384 1270 331.823 1272.88 334.94C1276.23 338.057 1277.67 341.893 1277.67 346.928C1277.67 351.962 1276.23 355.319 1272.88 358.436C1269.52 361.553 1265.68 362.751 1260.41 362.751H1197.13V414.539H1273.12C1278.63 413.82 1282.7 415.258 1286.06 418.615Z" fill="#A31711"/>
    <path d="M1469.44 420.053C1471.59 423.17 1472.79 426.287 1472.79 430.363C1472.79 435.158 1470.88 438.994 1467.28 442.351C1463.68 445.707 1459.85 447.146 1455.77 447.146C1450.26 447.146 1445.95 444.748 1441.87 439.953L1391.77 373.301L1343.35 439.234C1339.75 444.269 1334.96 447.146 1329.21 447.146C1324.89 447.146 1321.78 445.707 1318.66 442.59C1315.54 439.474 1314.11 436.357 1314.11 432.281C1314.11 427.965 1315.54 424.369 1318.42 420.773L1372.59 347.407L1318.42 275.72C1316.02 272.603 1314.82 269.486 1314.82 265.41C1314.82 260.855 1316.74 256.779 1320.34 253.423C1323.93 250.066 1327.77 248.388 1332.08 248.388C1337.6 248.388 1341.91 250.785 1345.99 255.58L1395.37 321.274L1443.55 257.019C1445.47 254.382 1447.38 252.464 1449.78 251.025C1452.18 249.586 1454.57 248.867 1456.97 248.867C1461.29 248.867 1464.88 250.306 1467.76 253.662C1471.11 257.019 1472.55 260.615 1472.55 264.451C1472.55 268.048 1471.35 271.404 1468.96 274.761L1414.78 346.928L1469.44 420.053Z" fill="#A31711"/>
    <path d="M1662.4 430.603C1662.4 435.398 1660.97 439.234 1657.61 442.59C1654.25 445.707 1650.66 447.146 1646.82 447.146C1643.47 447.146 1640.59 446.187 1637.71 444.029C1635.08 441.871 1632.92 439.234 1631.48 435.637L1617.1 401.592H1533.68L1519.3 435.877C1518.1 439.474 1515.94 442.111 1513.3 444.029C1510.67 446.187 1507.55 447.146 1504.68 447.146C1499.88 447.146 1496.29 445.947 1493.41 443.31C1490.77 440.672 1489.57 437.316 1489.57 432.76C1489.57 430.842 1489.81 429.404 1490.53 427.246L1560.53 259.416C1561.97 255.82 1564.12 252.703 1567.24 250.785C1570.36 248.627 1573.47 247.668 1577.55 248.388C1580.9 248.388 1584.26 249.347 1586.9 251.505C1590.01 253.662 1591.93 256.3 1593.13 259.656L1662.16 423.889C1661.92 426.287 1662.4 428.684 1662.4 430.603ZM1527.45 234.002C1524.33 230.406 1522.89 225.611 1522.89 219.617C1522.89 213.623 1525.53 207.629 1531.28 202.354C1537.04 197.32 1544.47 194.922 1553.82 194.922C1558.61 194.922 1563.16 195.881 1567.72 197.559C1572.03 199.477 1577.07 202.115 1582.82 205.471C1586.66 207.629 1589.77 209.307 1592.17 210.506C1594.57 211.705 1596.72 212.424 1598.4 212.424C1600.56 212.424 1602 211.705 1603.2 210.506C1604.39 209.307 1604.63 208.109 1604.15 206.191C1603.91 205.232 1603.44 204.033 1603.44 202.354C1603.44 199.238 1604.39 196.84 1606.55 195.162C1608.71 193.244 1611.11 192.524 1613.98 192.524C1618.3 192.524 1621.89 194.442 1624.77 198.039C1627.89 201.635 1629.32 206.191 1629.32 211.945C1629.32 215.541 1628.36 219.137 1626.21 223.213C1624.05 227.049 1621.17 230.406 1617.1 233.043C1613.26 235.681 1608.47 236.879 1602.72 236.879C1596.96 236.879 1592.17 235.92 1587.61 234.242C1582.82 232.324 1577.07 229.687 1569.88 226.09C1565.56 223.933 1562.44 222.254 1560.05 221.295C1557.65 220.336 1555.49 219.857 1553.82 219.857C1551.66 219.857 1550.22 220.576 1549.02 221.775C1547.82 222.974 1547.58 224.172 1548.06 226.09C1548.3 227.049 1548.78 228.248 1548.78 229.926C1548.78 233.043 1547.82 235.441 1545.67 237.119C1543.51 239.037 1541.11 239.756 1538.23 239.756C1534.16 239.517 1530.32 237.599 1527.45 234.002ZM1546.62 369.704H1602.72L1574.43 304.011L1546.62 369.704Z" fill="#A31711"/>
    <path d="M1854.41 398.715C1846.26 414.059 1834.75 426.527 1820.37 435.158C1805.99 444.269 1789.69 448.824 1771.47 448.824C1753.25 448.824 1737.19 444.269 1722.57 435.158C1707.95 426.047 1696.68 414.059 1688.53 398.715C1680.38 383.371 1676.55 366.348 1676.55 347.647C1676.55 328.946 1680.38 312.163 1688.53 296.579C1696.68 280.995 1708.19 268.767 1722.57 260.136C1736.95 251.025 1753.25 246.47 1771.47 246.47C1789.69 246.47 1805.75 251.025 1820.37 260.136C1834.99 269.247 1846.26 281.234 1854.41 296.579C1862.56 311.923 1866.88 328.946 1866.88 347.647C1866.88 366.348 1862.56 383.371 1854.41 398.715ZM1822.77 313.602C1817.73 303.292 1810.78 295.14 1801.67 289.386C1792.57 283.392 1782.74 280.275 1771.23 280.275C1759.72 280.275 1749.42 283.392 1740.79 288.907C1732.16 294.901 1725.21 302.812 1719.93 313.122C1715.14 323.432 1712.5 334.94 1712.5 347.407C1712.5 359.875 1714.9 371.143 1719.93 381.692C1724.73 392.002 1731.68 400.154 1740.79 405.908C1749.42 411.902 1759.72 414.539 1771.23 414.539C1782.74 414.539 1792.57 411.422 1801.67 405.428C1810.78 399.434 1817.73 391.283 1822.77 381.213C1827.8 370.903 1830.2 359.875 1830.2 347.167C1830.2 334.46 1828.04 323.911 1822.77 313.602Z" fill="#A31711"/>
    <path d="M297.019 163.956C297.019 164.436 296.78 164.915 296.78 165.395C296.54 169.711 297.259 173.786 299.177 177.862L240.927 231.568L182.678 285.273C178.363 282.876 173.569 281.917 169.015 281.917L106.211 98.503C108.848 97.0644 111.485 95.3861 113.642 93.2283C115.799 91.0705 117.957 88.9127 119.395 86.2754L297.019 163.956V163.956Z" stroke="#A31711" stroke-width="8" stroke-miterlimit="10"/>
    <path d="M53.2355 307.331L142.887 315.483C143.846 320.038 146.243 324.354 149.359 327.95C152.715 331.786 157.03 334.184 161.584 335.622L163.502 407.549L164.221 438.718C161.584 439.677 158.947 441.115 157.03 443.033L44.8457 320.997C48.4413 317.161 51.3179 312.366 53.2355 307.331Z" stroke="#A31711" stroke-width="8" stroke-miterlimit="10"/>
    <path d="M87.7545 103.059H89.4325L152.716 287.671C151.997 288.151 151.277 288.87 150.558 289.349C147.682 291.987 145.524 295.104 144.086 298.46L54.1952 290.308C52.9967 283.355 49.8805 276.882 45.0863 271.607C40.5318 266.573 34.7788 263.216 28.3066 261.538L80.3235 102.1C82.9603 102.339 85.3574 102.819 87.7545 103.059Z" stroke="#06ACF5" stroke-width="8" stroke-miterlimit="10"/>
    <path d="M196.581 312.366C197.06 307.571 196.341 302.536 194.184 298.22L310.682 190.81C314.997 193.207 319.791 194.406 324.585 194.166L391.944 383.574C389.547 385.012 387.149 386.691 384.752 388.609C382.595 390.527 380.677 392.924 379.239 395.082L196.581 312.366V312.366Z" stroke="#A31711" stroke-width="8" stroke-miterlimit="10"/>
    <path d="M293.184 43.3592C298.457 49.1134 305.409 52.9495 313.079 54.388V57.5048L314.997 140.94C311.641 142.139 308.525 144.057 305.648 146.454C305.169 146.934 304.21 147.653 303.731 148.372L242.845 121.76L124.908 70.2119C124.908 69.7324 125.147 69.0131 125.147 68.5336C125.387 66.1361 125.147 63.7385 124.668 61.3409L284.075 24.4185C285.273 31.6111 288.389 37.8448 293.184 43.3592V43.3592Z" stroke="#06ACF5" stroke-width="8" stroke-miterlimit="10"/>
    <path d="M451.153 162.039C447.797 165.156 445.16 168.752 443.242 172.588L350.954 161.319C349.996 156.524 347.838 151.969 344.242 148.133C340.887 144.537 336.572 141.899 332.017 140.461L330.1 54.3881V53.1893C335.134 51.7508 339.928 48.8737 344.003 45.2773L451.153 162.039V162.039Z" stroke="#A31711" stroke-width="8" stroke-miterlimit="10"/>
    <path d="M411.122 379.018H408.965L341.127 188.172C341.606 187.692 342.325 187.213 342.805 186.733C345.442 184.336 347.599 181.459 349.037 178.342L439.887 189.371C440.127 198.002 443.243 206.154 449.236 212.867C453.551 217.662 459.304 221.018 465.296 222.937L417.594 379.737C415.437 379.258 413.519 379.018 411.122 379.018V379.018Z" stroke="#06ACF5" stroke-width="8" stroke-miterlimit="10"/>
    <path d="M196.582 445.671C192.267 441.115 186.994 438.238 181.481 437.039L178.844 335.143C182.2 333.944 185.316 332.026 188.192 329.628C188.672 329.149 189.391 328.43 189.631 327.95L373.967 411.385C373.967 412.105 373.727 412.824 373.727 413.543C373.488 415.941 373.727 418.338 374.207 420.736L203.294 458.857C202.096 453.583 199.698 449.267 196.582 445.671Z" stroke="#06ACF5" stroke-width="8" stroke-miterlimit="10"/>
    <path d="M32.8603 283.116C36.2162 286.952 38.1339 291.747 37.8941 296.782C37.6544 301.577 35.4971 306.372 31.6617 309.728C23.991 316.921 12.0056 316.202 5.05399 308.53C1.69806 304.694 -0.219608 299.898 0.0201009 294.864C0.25981 290.068 2.41719 285.273 6.25254 281.917C13.9232 274.964 25.9087 275.443 32.8603 283.116Z" fill="#06ACF5"/>
    <path d="M108.129 67.8142C107.889 72.6093 105.731 77.4045 101.896 80.761C94.2254 87.9537 82.2399 87.2345 75.2884 79.5623C71.9324 75.7262 70.0148 70.931 70.2545 65.8961C70.4942 61.101 72.6516 56.3059 76.4869 52.9493C84.1576 45.7566 96.1431 46.4759 103.095 54.1481C106.69 57.9842 108.368 63.0191 108.129 67.8142Z" fill="#A31711"/>
    <path d="M332.257 32.8099C324.587 40.0026 312.601 39.2833 305.65 31.6111C302.294 27.775 300.376 22.9799 300.616 17.945C300.856 13.1498 303.013 8.35471 306.848 4.99812C314.519 -2.19458 326.504 -1.47531 333.456 6.1969C336.812 10.033 338.73 14.8281 338.49 19.863C338.25 24.6582 336.093 29.2135 332.257 32.8099Z" fill="#06ACF5"/>
    <path d="M461.7 201.359C458.345 197.523 456.427 192.727 456.667 187.693C456.906 182.897 459.064 178.102 462.899 174.746C470.57 167.553 482.555 168.272 489.507 175.944C492.863 179.781 494.78 184.576 494.541 189.611C494.301 194.645 492.144 199.201 488.308 202.557C480.877 209.271 468.892 209.031 461.7 201.359Z" fill="#A31711"/>
    <path d="M390.745 414.023C390.985 409.227 393.142 404.432 396.978 401.076C404.648 393.883 416.634 394.602 423.585 402.275C426.941 406.111 428.859 410.906 428.619 415.941C428.379 420.736 426.222 425.531 422.387 428.887C414.716 436.08 402.731 435.361 395.779 427.689C392.183 423.853 390.505 418.818 390.745 414.023Z" fill="#06ACF5"/>
    <path d="M162.303 451.425C169.974 444.232 181.959 444.951 188.911 452.624C192.267 456.46 194.185 461.255 193.945 466.29C193.705 471.085 191.548 475.88 187.712 479.237C180.042 486.429 168.056 485.71 161.105 478.038C157.749 474.202 155.831 469.407 156.071 464.372C156.311 459.816 158.468 455.261 162.303 451.425Z" fill="#A31711"/>
    <path d="M182.679 324.114C175.009 331.307 163.023 330.587 156.072 322.915C152.716 319.079 150.798 314.284 151.038 309.249C151.277 304.454 153.435 299.659 157.27 296.302C164.941 289.11 176.926 289.829 183.878 297.501C187.234 301.337 189.151 306.132 188.912 311.167C188.432 315.962 186.515 320.518 182.679 324.114Z" fill="#06ACF5"/>
    <path d="M343.283 167.793C343.043 172.588 340.886 177.383 337.05 180.74C329.38 187.932 317.394 187.213 310.443 179.541C307.087 175.705 305.169 170.91 305.409 165.875C305.648 161.08 307.806 156.284 311.641 152.928C319.312 145.735 331.297 146.454 338.249 154.127C342.084 158.202 343.523 162.998 343.283 167.793Z" fill="#06ACF5"/>
</svg>